<?xml version="1.0" standalone="no"?>
<!DOCTYPE svg PUBLIC "-//W3C//DTD SVG 20010904//EN"
 "http://www.w3.org/TR/2001/REC-SVG-20010904/DTD/svg10.dtd">
<svg version="1.0" xmlns="http://www.w3.org/2000/svg"
 width="421.000000pt" height="421.000000pt" viewBox="0 0 421.000000 421.000000"
 preserveAspectRatio="xMidYMid meet">
<metadata>
Created by potrace 1.14, written by Peter Selinger 2001-2017
</metadata>
<g transform="translate(0.000000,421.000000) scale(0.100000,-0.100000)"
fill="#000000" stroke="none">
<path d="M2298 3915 c-11 -11 -177 -48 -267 -60 -273 -34 -461 -119 -608 -272
l-53 -56 0 41 c0 22 5 44 10 47 6 3 10 13 10 22 0 13 -3 13 -27 -2 -71 -44
-107 -128 -117 -265 -1 -19 -8 -26 -26 -28 -98 -10 -113 -15 -141 -43 -28 -29
-31 -52 -6 -47 25 4 76 -14 81 -29 5 -11 -8 -31 -38 -60 -54 -52 -88 -98 -79
-107 3 -3 0 -6 -7 -6 -7 0 -10 -3 -7 -7 4 -3 3 -11 -2 -17 -8 -11 -31 -98 -38
-146 -9 -67 -2 -273 12 -349 9 -46 36 -138 61 -204 l45 -122 -21 -17 c-11 -9
-24 -27 -27 -40 -12 -42 -6 -182 11 -263 9 -44 18 -90 21 -103 2 -12 6 -26 9
-31 3 -4 -16 -8 -42 -9 -95 0 -103 -2 -129 -28 l-26 -26 8 -181 c7 -191 8
-204 20 -437 5 -80 9 -157 9 -172 1 -19 -13 -42 -51 -81 -46 -48 -133 -187
-117 -187 4 0 2 -6 -4 -12 -8 -11 -28 -71 -38 -113 -1 -5 -7 -30 -14 -55 -12
-45 -17 -65 -26 -109 -3 -14 -7 -28 -9 -32 -9 -13 20 -16 174 -18 85 -1 158
-4 163 -7 11 -7 2165 -7 2177 0 4 3 85 6 180 7 197 2 181 -10 151 119 -56 234
-106 338 -211 437 -27 25 -35 40 -33 61 2 15 6 90 9 167 3 77 7 163 10 190 6
72 19 343 18 389 -2 63 -34 87 -117 88 l-68 1 6 31 c3 17 8 42 11 56 3 14 7
36 10 50 3 14 7 36 10 50 3 14 8 61 10 104 4 84 -10 138 -42 161 -15 11 -15
17 1 76 9 35 19 75 22 88 3 13 9 32 15 43 5 10 7 18 4 18 -3 0 -1 8 4 18 22
42 35 234 21 312 -5 25 -11 65 -15 88 -13 88 -105 341 -127 350 -4 2 -8 8 -8
14 0 12 -63 100 -98 138 -14 16 -21 34 -19 48 4 20 -6 27 -34 24 -3 -1 -35 47
-70 106 -35 59 -67 109 -71 110 -5 2 -8 8 -8 14 0 27 -144 182 -180 193 -11 4
-20 11 -20 16 0 6 -4 7 -10 4 -5 -3 -10 -2 -10 3 0 5 -6 9 -12 10 -7 1 -29 5
-49 8 -33 5 -37 4 -47 -24 -19 -55 -110 -125 -129 -99 -12 15 -11 19 12 90 13
38 15 61 9 67 -6 6 -13 8 -16 5z"/>
</g>
</svg>
